ISO-10303-21;
HEADER;
/* Generated by software containing ST-Developer
 * from STEP Tools, Inc. (www.steptools.com) 
 */

FILE_DESCRIPTION(
/* description */ (''),
/* implementation_level */ '2;1');

FILE_NAME(
/* name */ 'calibration station.step',
/* time_stamp */ '2026-02-24T20:58:04+05:00',
/* author */ (''),
/* organization */ (''),
/* preprocessor_version */ 'ST-DEVELOPER v20.1',
/* originating_system */ 'Autodesk Translation Framework v14.24.0.0',
/* authorisation */ '');

FILE_SCHEMA (('AUTOMOTIVE_DESIGN { 1 0 10303 214 3 1 1 }'));
ENDSEC;

DATA;
#10=MECHANICAL_DESIGN_GEOMETRIC_PRESENTATION_REPRESENTATION('',(#17),#1059);
#11=ITEM_DEFINED_TRANSFORMATION($,$,#667,#704);
#12=(
REPRESENTATION_RELATIONSHIP($,$,#1070,#1069)
REPRESENTATION_RELATIONSHIP_WITH_TRANSFORMATION(#11)
SHAPE_REPRESENTATION_RELATIONSHIP()
);
#13=CONTEXT_DEPENDENT_SHAPE_REPRESENTATION(#12,#1068);
#14=NEXT_ASSEMBLY_USAGE_OCCURRENCE('CAL:1','CAL:1','CAL:1',#1072,#1073,
'CAL:1');
#15=SHAPE_REPRESENTATION_RELATIONSHIP('SRR','None',#1070,#16);
#16=ADVANCED_BREP_SHAPE_REPRESENTATION('',(#18),#1058);
#17=STYLED_ITEM('',(#1084),#18);
#18=MANIFOLD_SOLID_BREP('Body1',#653);
#19=CYLINDRICAL_SURFACE('',#680,2.2);
#20=CYLINDRICAL_SURFACE('',#683,2.2);
#21=CIRCLE('',#671,2.2);
#22=CIRCLE('',#672,2.2);
#23=CIRCLE('',#681,2.2);
#24=CIRCLE('',#684,2.2);
#25=FACE_OUTER_BOUND('',#57,.T.);
#26=FACE_OUTER_BOUND('',#58,.T.);
#27=FACE_OUTER_BOUND('',#59,.T.);
#28=FACE_OUTER_BOUND('',#60,.T.);
#29=FACE_OUTER_BOUND('',#61,.T.);
#30=FACE_OUTER_BOUND('',#62,.T.);
#31=FACE_OUTER_BOUND('',#63,.T.);
#32=FACE_OUTER_BOUND('',#64,.T.);
#33=FACE_OUTER_BOUND('',#65,.T.);
#34=FACE_OUTER_BOUND('',#66,.T.);
#35=FACE_OUTER_BOUND('',#67,.T.);
#36=FACE_OUTER_BOUND('',#68,.T.);
#37=FACE_OUTER_BOUND('',#69,.T.);
#38=FACE_OUTER_BOUND('',#70,.T.);
#39=FACE_OUTER_BOUND('',#71,.T.);
#40=FACE_OUTER_BOUND('',#72,.T.);
#41=FACE_OUTER_BOUND('',#73,.T.);
#42=FACE_OUTER_BOUND('',#74,.T.);
#43=FACE_OUTER_BOUND('',#75,.T.);
#44=FACE_OUTER_BOUND('',#76,.T.);
#45=FACE_OUTER_BOUND('',#77,.T.);
#46=FACE_OUTER_BOUND('',#78,.T.);
#47=FACE_OUTER_BOUND('',#79,.T.);
#48=FACE_OUTER_BOUND('',#80,.T.);
#49=FACE_OUTER_BOUND('',#81,.T.);
#50=FACE_OUTER_BOUND('',#82,.T.);
#51=FACE_OUTER_BOUND('',#83,.T.);
#52=FACE_OUTER_BOUND('',#84,.T.);
#53=FACE_OUTER_BOUND('',#85,.T.);
#54=FACE_OUTER_BOUND('',#86,.T.);
#55=FACE_OUTER_BOUND('',#87,.T.);
#56=FACE_OUTER_BOUND('',#88,.T.);
#57=EDGE_LOOP('',(#411,#412,#413,#414,#415,#416));
#58=EDGE_LOOP('',(#417,#418,#419,#420,#421,#422,#423,#424,#425,#426));
#59=EDGE_LOOP('',(#427,#428,#429,#430,#431,#432,#433,#434,#435,#436,#437,
#438,#439,#440,#441,#442,#443,#444));
#60=EDGE_LOOP('',(#445,#446,#447,#448,#449,#450));
#61=EDGE_LOOP('',(#451,#452,#453,#454));
#62=EDGE_LOOP('',(#455,#456,#457,#458));
#63=EDGE_LOOP('',(#459,#460,#461,#462,#463,#464,#465,#466));
#64=EDGE_LOOP('',(#467,#468,#469,#470,#471,#472,#473,#474));
#65=EDGE_LOOP('',(#475,#476,#477,#478,#479));
#66=EDGE_LOOP('',(#480,#481,#482,#483,#484));
#67=EDGE_LOOP('',(#485,#486,#487,#488));
#68=EDGE_LOOP('',(#489,#490,#491,#492));
#69=EDGE_LOOP('',(#493,#494,#495,#496));
#70=EDGE_LOOP('',(#497,#498,#499,#500,#501,#502,#503,#504));
#71=EDGE_LOOP('',(#505,#506,#507,#508));
#72=EDGE_LOOP('',(#509,#510,#511,#512));
#73=EDGE_LOOP('',(#513,#514,#515,#516));
#74=EDGE_LOOP('',(#517,#518,#519,#520));
#75=EDGE_LOOP('',(#521,#522,#523,#524));
#76=EDGE_LOOP('',(#525,#526,#527,#528));
#77=EDGE_LOOP('',(#529,#530,#531,#532));
#78=EDGE_LOOP('',(#533,#534,#535,#536,#537,#538,#539,#540,#541,#542));
#79=EDGE_LOOP('',(#543,#544,#545,#546));
#80=EDGE_LOOP('',(#547,#548,#549,#550));
#81=EDGE_LOOP('',(#551,#552,#553,#554,#555,#556,#557,#558));
#82=EDGE_LOOP('',(#559,#560,#561,#562));
#83=EDGE_LOOP('',(#563,#564,#565,#566));
#84=EDGE_LOOP('',(#567,#568,#569,#570));
#85=EDGE_LOOP('',(#571,#572,#573,#574,#575,#576,#577,#578));
#86=EDGE_LOOP('',(#579,#580,#581,#582));
#87=EDGE_LOOP('',(#583,#584,#585,#586));
#88=EDGE_LOOP('',(#587,#588,#589,#590));
#89=LINE('',#874,#175);
#90=LINE('',#876,#176);
#91=LINE('',#878,#177);
#92=LINE('',#880,#178);
#93=LINE('',#882,#179);
#94=LINE('',#883,#180);
#95=LINE('',#886,#181);
#96=LINE('',#888,#182);
#97=LINE('',#890,#183);
#98=LINE('',#892,#184);
#99=LINE('',#894,#185);
#100=LINE('',#896,#186);
#101=LINE('',#898,#187);
#102=LINE('',#900,#188);
#103=LINE('',#901,#189);
#104=LINE('',#904,#190);
#105=LINE('',#906,#191);
#106=LINE('',#908,#192);
#107=LINE('',#910,#193);
#108=LINE('',#912,#194);
#109=LINE('',#914,#195);
#110=LINE('',#916,#196);
#111=LINE('',#920,#197);
#112=LINE('',#924,#198);
#113=LINE('',#926,#199);
#114=LINE('',#928,#200);
#115=LINE('',#930,#201);
#116=LINE('',#932,#202);
#117=LINE('',#934,#203);
#118=LINE('',#935,#204);
#119=LINE('',#938,#205);
#120=LINE('',#940,#206);
#121=LINE('',#942,#207);
#122=LINE('',#944,#208);
#123=LINE('',#945,#209);
#124=LINE('',#948,#210);
#125=LINE('',#949,#211);
#126=LINE('',#952,#212);
#127=LINE('',#953,#213);
#128=LINE('',#955,#214);
#129=LINE('',#957,#215);
#130=LINE('',#959,#216);
#131=LINE('',#961,#217);
#132=LINE('',#962,#218);
#133=LINE('',#965,#219);
#134=LINE('',#967,#220);
#135=LINE('',#969,#221);
#136=LINE('',#970,#222);
#137=LINE('',#971,#223);
#138=LINE('',#973,#224);
#139=LINE('',#975,#225);
#140=LINE('',#980,#226);
#141=LINE('',#981,#227);
#142=LINE('',#984,#228);
#143=LINE('',#985,#229);
#144=LINE('',#989,#230);
#145=LINE('',#992,#231);
#146=LINE('',#994,#232);
#147=LINE('',#996,#233);
#148=LINE('',#998,#234);
#149=LINE('',#1000,#235);
#150=LINE('',#1001,#236);
#151=LINE('',#1003,#237);
#152=LINE('',#1005,#238);
#153=LINE('',#1008,#239);
#154=LINE('',#1010,#240);
#155=LINE('',#1013,#241);
#156=LINE('',#1014,#242);
#157=LINE('',#1017,#243);
#158=LINE('',#1019,#244);
#159=LINE('',#1021,#245);
#160=LINE('',#1023,#246);
#161=LINE('',#1024,#247);
#162=LINE('',#1027,#248);
#163=LINE('',#1028,#249);
#164=LINE('',#1031,#250);
#165=LINE('',#1032,#251);
#166=LINE('',#1034,#252);
#167=LINE('',#1036,#253);
#168=LINE('',#1037,#254);
#169=LINE('',#1040,#255);
#170=LINE('',#1044,#256);
#171=LINE('',#1046,#257);
#172=LINE('',#1047,#258);
#173=LINE('',#1049,#259);
#174=LINE('',#1051,#260);
#175=VECTOR('',#711,10.);
#176=VECTOR('',#712,10.);
#177=VECTOR('',#713,10.);
#178=VECTOR('',#714,10.);
#179=VECTOR('',#715,10.);
#180=VECTOR('',#716,10.);
#181=VECTOR('',#719,10.);
#182=VECTOR('',#720,10.);
#183=VECTOR('',#721,10.);
#184=VECTOR('',#722,10.);
#185=VECTOR('',#723,10.);
#186=VECTOR('',#724,10.);
#187=VECTOR('',#725,10.);
#188=VECTOR('',#726,10.);
#189=VECTOR('',#727,10.);
#190=VECTOR('',#730,10.);
#191=VECTOR('',#731,10.);
#192=VECTOR('',#732,10.);
#193=VECTOR('',#733,10.);
#194=VECTOR('',#734,10.);
#195=VECTOR('',#735,10.);
#196=VECTOR('',#736,10.);
#197=VECTOR('',#739,10.);
#198=VECTOR('',#742,10.);
#199=VECTOR('',#743,10.);
#200=VECTOR('',#744,10.);
#201=VECTOR('',#745,10.);
#202=VECTOR('',#746,10.);
#203=VECTOR('',#747,10.);
#204=VECTOR('',#748,10.);
#205=VECTOR('',#751,10.);
#206=VECTOR('',#752,10.);
#207=VECTOR('',#753,10.);
#208=VECTOR('',#754,10.);
#209=VECTOR('',#755,10.);
#210=VECTOR('',#758,10.);
#211=VECTOR('',#759,10.);
#212=VECTOR('',#762,10.);
#213=VECTOR('',#763,10.);
#214=VECTOR('',#766,10.);
#215=VECTOR('',#767,10.);
#216=VECTOR('',#768,10.);
#217=VECTOR('',#769,10.);
#218=VECTOR('',#770,10.);
#219=VECTOR('',#773,10.);
#220=VECTOR('',#774,10.);
#221=VECTOR('',#775,10.);
#222=VECTOR('',#776,10.);
#223=VECTOR('',#777,10.);
#224=VECTOR('',#780,10.);
#225=VECTOR('',#783,10.);
#226=VECTOR('',#788,10.);
#227=VECTOR('',#789,10.);
#228=VECTOR('',#792,10.);
#229=VECTOR('',#793,10.);
#230=VECTOR('',#798,10.);
#231=VECTOR('',#801,10.);
#232=VECTOR('',#802,10.);
#233=VECTOR('',#803,10.);
#234=VECTOR('',#804,10.);
#235=VECTOR('',#805,10.);
#236=VECTOR('',#806,10.);
#237=VECTOR('',#809,10.);
#238=VECTOR('',#812,10.);
#239=VECTOR('',#817,10.);
#240=VECTOR('',#820,10.);
#241=VECTOR('',#825,10.);
#242=VECTOR('',#826,10.);
#243=VECTOR('',#829,10.);
#244=VECTOR('',#830,10.);
#245=VECTOR('',#831,10.);
#246=VECTOR('',#832,10.);
#247=VECTOR('',#833,10.);
#248=VECTOR('',#836,10.);
#249=VECTOR('',#837,10.);
#250=VECTOR('',#840,10.);
#251=VECTOR('',#841,10.);
#252=VECTOR('',#844,10.);
#253=VECTOR('',#845,10.);
#254=VECTOR('',#846,10.);
#255=VECTOR('',#851,10.);
#256=VECTOR('',#856,10.);
#257=VECTOR('',#857,10.);
#258=VECTOR('',#858,10.);
#259=VECTOR('',#861,10.);
#260=VECTOR('',#864,10.);
#261=VERTEX_POINT('',#872);
#262=VERTEX_POINT('',#873);
#263=VERTEX_POINT('',#875);
#264=VERTEX_POINT('',#877);
#265=VERTEX_POINT('',#879);
#266=VERTEX_POINT('',#881);
#267=VERTEX_POINT('',#885);
#268=VERTEX_POINT('',#887);
#269=VERTEX_POINT('',#889);
#270=VERTEX_POINT('',#891);
#271=VERTEX_POINT('',#893);
#272=VERTEX_POINT('',#895);
#273=VERTEX_POINT('',#897);
#274=VERTEX_POINT('',#899);
#275=VERTEX_POINT('',#903);
#276=VERTEX_POINT('',#905);
#277=VERTEX_POINT('',#907);
#278=VERTEX_POINT('',#909);
#279=VERTEX_POINT('',#911);
#280=VERTEX_POINT('',#913);
#281=VERTEX_POINT('',#915);
#282=VERTEX_POINT('',#917);
#283=VERTEX_POINT('',#919);
#284=VERTEX_POINT('',#921);
#285=VERTEX_POINT('',#923);
#286=VERTEX_POINT('',#925);
#287=VERTEX_POINT('',#927);
#288=VERTEX_POINT('',#929);
#289=VERTEX_POINT('',#931);
#290=VERTEX_POINT('',#933);
#291=VERTEX_POINT('',#937);
#292=VERTEX_POINT('',#939);
#293=VERTEX_POINT('',#941);
#294=VERTEX_POINT('',#943);
#295=VERTEX_POINT('',#947);
#296=VERTEX_POINT('',#951);
#297=VERTEX_POINT('',#956);
#298=VERTEX_POINT('',#958);
#299=VERTEX_POINT('',#960);
#300=VERTEX_POINT('',#964);
#301=VERTEX_POINT('',#966);
#302=VERTEX_POINT('',#968);
#303=VERTEX_POINT('',#977);
#304=VERTEX_POINT('',#978);
#305=VERTEX_POINT('',#983);
#306=VERTEX_POINT('',#987);
#307=VERTEX_POINT('',#991);
#308=VERTEX_POINT('',#993);
#309=VERTEX_POINT('',#995);
#310=VERTEX_POINT('',#997);
#311=VERTEX_POINT('',#999);
#312=VERTEX_POINT('',#1016);
#313=VERTEX_POINT('',#1018);
#314=VERTEX_POINT('',#1020);
#315=VERTEX_POINT('',#1022);
#316=VERTEX_POINT('',#1026);
#317=VERTEX_POINT('',#1030);
#318=VERTEX_POINT('',#1035);
#319=VERTEX_POINT('',#1043);
#320=VERTEX_POINT('',#1045);
#321=EDGE_CURVE('',#261,#262,#89,.T.);
#322=EDGE_CURVE('',#263,#261,#90,.T.);
#323=EDGE_CURVE('',#264,#263,#91,.T.);
#324=EDGE_CURVE('',#264,#265,#92,.T.);
#325=EDGE_CURVE('',#266,#265,#93,.T.);
#326=EDGE_CURVE('',#266,#262,#94,.T.);
#327=EDGE_CURVE('',#267,#261,#95,.T.);
#328=EDGE_CURVE('',#267,#268,#96,.T.);
#329=EDGE_CURVE('',#269,#268,#97,.T.);
#330=EDGE_CURVE('',#269,#270,#98,.T.);
#331=EDGE_CURVE('',#271,#270,#99,.T.);
#332=EDGE_CURVE('',#271,#272,#100,.T.);
#333=EDGE_CURVE('',#272,#273,#101,.T.);
#334=EDGE_CURVE('',#273,#274,#102,.T.);
#335=EDGE_CURVE('',#263,#274,#103,.T.);
#336=EDGE_CURVE('',#275,#267,#104,.T.);
#337=EDGE_CURVE('',#276,#275,#105,.T.);
#338=EDGE_CURVE('',#277,#276,#106,.T.);
#339=EDGE_CURVE('',#278,#277,#107,.T.);
#340=EDGE_CURVE('',#279,#278,#108,.T.);
#341=EDGE_CURVE('',#280,#279,#109,.T.);
#342=EDGE_CURVE('',#281,#280,#110,.T.);
#343=EDGE_CURVE('',#282,#281,#21,.T.);
#344=EDGE_CURVE('',#283,#282,#111,.T.);
#345=EDGE_CURVE('',#284,#283,#22,.T.);
#346=EDGE_CURVE('',#284,#285,#112,.T.);
#347=EDGE_CURVE('',#285,#286,#113,.T.);
#348=EDGE_CURVE('',#287,#286,#114,.T.);
#349=EDGE_CURVE('',#287,#288,#115,.T.);
#350=EDGE_CURVE('',#289,#288,#116,.T.);
#351=EDGE_CURVE('',#289,#290,#117,.T.);
#352=EDGE_CURVE('',#268,#290,#118,.T.);
#353=EDGE_CURVE('',#291,#269,#119,.T.);
#354=EDGE_CURVE('',#291,#292,#120,.T.);
#355=EDGE_CURVE('',#293,#292,#121,.T.);
#356=EDGE_CURVE('',#293,#294,#122,.T.);
#357=EDGE_CURVE('',#270,#294,#123,.T.);
#358=EDGE_CURVE('',#295,#264,#124,.T.);
#359=EDGE_CURVE('',#274,#295,#125,.T.);
#360=EDGE_CURVE('',#294,#296,#126,.T.);
#361=EDGE_CURVE('',#296,#271,#127,.T.);
#362=EDGE_CURVE('',#287,#296,#128,.T.);
#363=EDGE_CURVE('',#286,#297,#129,.T.);
#364=EDGE_CURVE('',#297,#298,#130,.T.);
#365=EDGE_CURVE('',#298,#299,#131,.T.);
#366=EDGE_CURVE('',#299,#272,#132,.T.);
#367=EDGE_CURVE('',#300,#273,#133,.T.);
#368=EDGE_CURVE('',#300,#301,#134,.T.);
#369=EDGE_CURVE('',#301,#302,#135,.T.);
#370=EDGE_CURVE('',#302,#279,#136,.T.);
#371=EDGE_CURVE('',#295,#278,#137,.T.);
#372=EDGE_CURVE('',#265,#277,#138,.T.);
#373=EDGE_CURVE('',#288,#293,#139,.T.);
#374=EDGE_CURVE('',#303,#304,#23,.T.);
#375=EDGE_CURVE('',#304,#282,#140,.T.);
#376=EDGE_CURVE('',#281,#303,#141,.T.);
#377=EDGE_CURVE('',#305,#304,#142,.T.);
#378=EDGE_CURVE('',#283,#305,#143,.T.);
#379=EDGE_CURVE('',#305,#306,#24,.T.);
#380=EDGE_CURVE('',#306,#284,#144,.T.);
#381=EDGE_CURVE('',#307,#306,#145,.T.);
#382=EDGE_CURVE('',#308,#307,#146,.T.);
#383=EDGE_CURVE('',#308,#309,#147,.T.);
#384=EDGE_CURVE('',#310,#309,#148,.T.);
#385=EDGE_CURVE('',#311,#310,#149,.T.);
#386=EDGE_CURVE('',#285,#311,#150,.T.);
#387=EDGE_CURVE('',#262,#275,#151,.T.);
#388=EDGE_CURVE('',#276,#266,#152,.T.);
#389=EDGE_CURVE('',#290,#291,#153,.T.);
#390=EDGE_CURVE('',#292,#289,#154,.T.);
#391=EDGE_CURVE('',#310,#298,#155,.T.);
#392=EDGE_CURVE('',#309,#299,#156,.T.);
#393=EDGE_CURVE('',#312,#308,#157,.T.);
#394=EDGE_CURVE('',#312,#313,#158,.T.);
#395=EDGE_CURVE('',#314,#313,#159,.T.);
#396=EDGE_CURVE('',#314,#315,#160,.T.);
#397=EDGE_CURVE('',#300,#315,#161,.T.);
#398=EDGE_CURVE('',#315,#316,#162,.T.);
#399=EDGE_CURVE('',#316,#301,#163,.T.);
#400=EDGE_CURVE('',#316,#317,#164,.T.);
#401=EDGE_CURVE('',#317,#302,#165,.T.);
#402=EDGE_CURVE('',#317,#280,#166,.T.);
#403=EDGE_CURVE('',#318,#314,#167,.T.);
#404=EDGE_CURVE('',#303,#318,#168,.T.);
#405=EDGE_CURVE('',#311,#297,#169,.T.);
#406=EDGE_CURVE('',#318,#319,#170,.T.);
#407=EDGE_CURVE('',#319,#320,#171,.T.);
#408=EDGE_CURVE('',#320,#307,#172,.T.);
#409=EDGE_CURVE('',#313,#319,#173,.T.);
#410=EDGE_CURVE('',#320,#312,#174,.T.);
#411=ORIENTED_EDGE('',*,*,#321,.F.);
#412=ORIENTED_EDGE('',*,*,#322,.F.);
#413=ORIENTED_EDGE('',*,*,#323,.F.);
#414=ORIENTED_EDGE('',*,*,#324,.T.);
#415=ORIENTED_EDGE('',*,*,#325,.F.);
#416=ORIENTED_EDGE('',*,*,#326,.T.);
#417=ORIENTED_EDGE('',*,*,#327,.F.);
#418=ORIENTED_EDGE('',*,*,#328,.T.);
#419=ORIENTED_EDGE('',*,*,#329,.F.);
#420=ORIENTED_EDGE('',*,*,#330,.T.);
#421=ORIENTED_EDGE('',*,*,#331,.F.);
#422=ORIENTED_EDGE('',*,*,#332,.T.);
#423=ORIENTED_EDGE('',*,*,#333,.T.);
#424=ORIENTED_EDGE('',*,*,#334,.T.);
#425=ORIENTED_EDGE('',*,*,#335,.F.);
#426=ORIENTED_EDGE('',*,*,#322,.T.);
#427=ORIENTED_EDGE('',*,*,#336,.F.);
#428=ORIENTED_EDGE('',*,*,#337,.F.);
#429=ORIENTED_EDGE('',*,*,#338,.F.);
#430=ORIENTED_EDGE('',*,*,#339,.F.);
#431=ORIENTED_EDGE('',*,*,#340,.F.);
#432=ORIENTED_EDGE('',*,*,#341,.F.);
#433=ORIENTED_EDGE('',*,*,#342,.F.);
#434=ORIENTED_EDGE('',*,*,#343,.F.);
#435=ORIENTED_EDGE('',*,*,#344,.F.);
#436=ORIENTED_EDGE('',*,*,#345,.F.);
#437=ORIENTED_EDGE('',*,*,#346,.T.);
#438=ORIENTED_EDGE('',*,*,#347,.T.);
#439=ORIENTED_EDGE('',*,*,#348,.F.);
#440=ORIENTED_EDGE('',*,*,#349,.T.);
#441=ORIENTED_EDGE('',*,*,#350,.F.);
#442=ORIENTED_EDGE('',*,*,#351,.T.);
#443=ORIENTED_EDGE('',*,*,#352,.F.);
#444=ORIENTED_EDGE('',*,*,#328,.F.);
#445=ORIENTED_EDGE('',*,*,#353,.F.);
#446=ORIENTED_EDGE('',*,*,#354,.T.);
#447=ORIENTED_EDGE('',*,*,#355,.F.);
#448=ORIENTED_EDGE('',*,*,#356,.T.);
#449=ORIENTED_EDGE('',*,*,#357,.F.);
#450=ORIENTED_EDGE('',*,*,#330,.F.);
#451=ORIENTED_EDGE('',*,*,#358,.T.);
#452=ORIENTED_EDGE('',*,*,#323,.T.);
#453=ORIENTED_EDGE('',*,*,#335,.T.);
#454=ORIENTED_EDGE('',*,*,#359,.T.);
#455=ORIENTED_EDGE('',*,*,#360,.T.);
#456=ORIENTED_EDGE('',*,*,#361,.T.);
#457=ORIENTED_EDGE('',*,*,#331,.T.);
#458=ORIENTED_EDGE('',*,*,#357,.T.);
#459=ORIENTED_EDGE('',*,*,#361,.F.);
#460=ORIENTED_EDGE('',*,*,#362,.F.);
#461=ORIENTED_EDGE('',*,*,#348,.T.);
#462=ORIENTED_EDGE('',*,*,#363,.T.);
#463=ORIENTED_EDGE('',*,*,#364,.T.);
#464=ORIENTED_EDGE('',*,*,#365,.T.);
#465=ORIENTED_EDGE('',*,*,#366,.T.);
#466=ORIENTED_EDGE('',*,*,#332,.F.);
#467=ORIENTED_EDGE('',*,*,#359,.F.);
#468=ORIENTED_EDGE('',*,*,#334,.F.);
#469=ORIENTED_EDGE('',*,*,#367,.F.);
#470=ORIENTED_EDGE('',*,*,#368,.T.);
#471=ORIENTED_EDGE('',*,*,#369,.T.);
#472=ORIENTED_EDGE('',*,*,#370,.T.);
#473=ORIENTED_EDGE('',*,*,#340,.T.);
#474=ORIENTED_EDGE('',*,*,#371,.F.);
#475=ORIENTED_EDGE('',*,*,#371,.T.);
#476=ORIENTED_EDGE('',*,*,#339,.T.);
#477=ORIENTED_EDGE('',*,*,#372,.F.);
#478=ORIENTED_EDGE('',*,*,#324,.F.);
#479=ORIENTED_EDGE('',*,*,#358,.F.);
#480=ORIENTED_EDGE('',*,*,#362,.T.);
#481=ORIENTED_EDGE('',*,*,#360,.F.);
#482=ORIENTED_EDGE('',*,*,#356,.F.);
#483=ORIENTED_EDGE('',*,*,#373,.F.);
#484=ORIENTED_EDGE('',*,*,#349,.F.);
#485=ORIENTED_EDGE('',*,*,#374,.T.);
#486=ORIENTED_EDGE('',*,*,#375,.T.);
#487=ORIENTED_EDGE('',*,*,#343,.T.);
#488=ORIENTED_EDGE('',*,*,#376,.T.);
#489=ORIENTED_EDGE('',*,*,#375,.F.);
#490=ORIENTED_EDGE('',*,*,#377,.F.);
#491=ORIENTED_EDGE('',*,*,#378,.F.);
#492=ORIENTED_EDGE('',*,*,#344,.T.);
#493=ORIENTED_EDGE('',*,*,#379,.T.);
#494=ORIENTED_EDGE('',*,*,#380,.T.);
#495=ORIENTED_EDGE('',*,*,#345,.T.);
#496=ORIENTED_EDGE('',*,*,#378,.T.);
#497=ORIENTED_EDGE('',*,*,#380,.F.);
#498=ORIENTED_EDGE('',*,*,#381,.F.);
#499=ORIENTED_EDGE('',*,*,#382,.F.);
#500=ORIENTED_EDGE('',*,*,#383,.T.);
#501=ORIENTED_EDGE('',*,*,#384,.F.);
#502=ORIENTED_EDGE('',*,*,#385,.F.);
#503=ORIENTED_EDGE('',*,*,#386,.F.);
#504=ORIENTED_EDGE('',*,*,#346,.F.);
#505=ORIENTED_EDGE('',*,*,#321,.T.);
#506=ORIENTED_EDGE('',*,*,#387,.T.);
#507=ORIENTED_EDGE('',*,*,#336,.T.);
#508=ORIENTED_EDGE('',*,*,#327,.T.);
#509=ORIENTED_EDGE('',*,*,#387,.F.);
#510=ORIENTED_EDGE('',*,*,#326,.F.);
#511=ORIENTED_EDGE('',*,*,#388,.F.);
#512=ORIENTED_EDGE('',*,*,#337,.T.);
#513=ORIENTED_EDGE('',*,*,#325,.T.);
#514=ORIENTED_EDGE('',*,*,#372,.T.);
#515=ORIENTED_EDGE('',*,*,#338,.T.);
#516=ORIENTED_EDGE('',*,*,#388,.T.);
#517=ORIENTED_EDGE('',*,*,#352,.T.);
#518=ORIENTED_EDGE('',*,*,#389,.T.);
#519=ORIENTED_EDGE('',*,*,#353,.T.);
#520=ORIENTED_EDGE('',*,*,#329,.T.);
#521=ORIENTED_EDGE('',*,*,#389,.F.);
#522=ORIENTED_EDGE('',*,*,#351,.F.);
#523=ORIENTED_EDGE('',*,*,#390,.F.);
#524=ORIENTED_EDGE('',*,*,#354,.F.);
#525=ORIENTED_EDGE('',*,*,#355,.T.);
#526=ORIENTED_EDGE('',*,*,#390,.T.);
#527=ORIENTED_EDGE('',*,*,#350,.T.);
#528=ORIENTED_EDGE('',*,*,#373,.T.);
#529=ORIENTED_EDGE('',*,*,#391,.F.);
#530=ORIENTED_EDGE('',*,*,#384,.T.);
#531=ORIENTED_EDGE('',*,*,#392,.T.);
#532=ORIENTED_EDGE('',*,*,#365,.F.);
#533=ORIENTED_EDGE('',*,*,#392,.F.);
#534=ORIENTED_EDGE('',*,*,#383,.F.);
#535=ORIENTED_EDGE('',*,*,#393,.F.);
#536=ORIENTED_EDGE('',*,*,#394,.T.);
#537=ORIENTED_EDGE('',*,*,#395,.F.);
#538=ORIENTED_EDGE('',*,*,#396,.T.);
#539=ORIENTED_EDGE('',*,*,#397,.F.);
#540=ORIENTED_EDGE('',*,*,#367,.T.);
#541=ORIENTED_EDGE('',*,*,#333,.F.);
#542=ORIENTED_EDGE('',*,*,#366,.F.);
#543=ORIENTED_EDGE('',*,*,#397,.T.);
#544=ORIENTED_EDGE('',*,*,#398,.T.);
#545=ORIENTED_EDGE('',*,*,#399,.T.);
#546=ORIENTED_EDGE('',*,*,#368,.F.);
#547=ORIENTED_EDGE('',*,*,#399,.F.);
#548=ORIENTED_EDGE('',*,*,#400,.T.);
#549=ORIENTED_EDGE('',*,*,#401,.T.);
#550=ORIENTED_EDGE('',*,*,#369,.F.);
#551=ORIENTED_EDGE('',*,*,#376,.F.);
#552=ORIENTED_EDGE('',*,*,#342,.T.);
#553=ORIENTED_EDGE('',*,*,#402,.F.);
#554=ORIENTED_EDGE('',*,*,#400,.F.);
#555=ORIENTED_EDGE('',*,*,#398,.F.);
#556=ORIENTED_EDGE('',*,*,#396,.F.);
#557=ORIENTED_EDGE('',*,*,#403,.F.);
#558=ORIENTED_EDGE('',*,*,#404,.F.);
#559=ORIENTED_EDGE('',*,*,#401,.F.);
#560=ORIENTED_EDGE('',*,*,#402,.T.);
#561=ORIENTED_EDGE('',*,*,#341,.T.);
#562=ORIENTED_EDGE('',*,*,#370,.F.);
#563=ORIENTED_EDGE('',*,*,#347,.F.);
#564=ORIENTED_EDGE('',*,*,#386,.T.);
#565=ORIENTED_EDGE('',*,*,#405,.T.);
#566=ORIENTED_EDGE('',*,*,#363,.F.);
#567=ORIENTED_EDGE('',*,*,#391,.T.);
#568=ORIENTED_EDGE('',*,*,#364,.F.);
#569=ORIENTED_EDGE('',*,*,#405,.F.);
#570=ORIENTED_EDGE('',*,*,#385,.T.);
#571=ORIENTED_EDGE('',*,*,#381,.T.);
#572=ORIENTED_EDGE('',*,*,#379,.F.);
#573=ORIENTED_EDGE('',*,*,#377,.T.);
#574=ORIENTED_EDGE('',*,*,#374,.F.);
#575=ORIENTED_EDGE('',*,*,#404,.T.);
#576=ORIENTED_EDGE('',*,*,#406,.T.);
#577=ORIENTED_EDGE('',*,*,#407,.T.);
#578=ORIENTED_EDGE('',*,*,#408,.T.);
#579=ORIENTED_EDGE('',*,*,#403,.T.);
#580=ORIENTED_EDGE('',*,*,#395,.T.);
#581=ORIENTED_EDGE('',*,*,#409,.T.);
#582=ORIENTED_EDGE('',*,*,#406,.F.);
#583=ORIENTED_EDGE('',*,*,#393,.T.);
#584=ORIENTED_EDGE('',*,*,#382,.T.);
#585=ORIENTED_EDGE('',*,*,#408,.F.);
#586=ORIENTED_EDGE('',*,*,#410,.T.);
#587=ORIENTED_EDGE('',*,*,#409,.F.);
#588=ORIENTED_EDGE('',*,*,#394,.F.);
#589=ORIENTED_EDGE('',*,*,#410,.F.);
#590=ORIENTED_EDGE('',*,*,#407,.F.);
#591=PLANE('',#668);
#592=PLANE('',#669);
#593=PLANE('',#670);
#594=PLANE('',#673);
#595=PLANE('',#674);
#596=PLANE('',#675);
#597=PLANE('',#676);
#598=PLANE('',#677);
#599=PLANE('',#678);
#600=PLANE('',#679);
#601=PLANE('',#682);
#602=PLANE('',#685);
#603=PLANE('',#686);
#604=PLANE('',#687);
#605=PLANE('',#688);
#606=PLANE('',#689);
#607=PLANE('',#690);
#608=PLANE('',#691);
#609=PLANE('',#692);
#610=PLANE('',#693);
#611=PLANE('',#694);
#612=PLANE('',#695);
#613=PLANE('',#696);
#614=PLANE('',#697);
#615=PLANE('',#698);
#616=PLANE('',#699);
#617=PLANE('',#700);
#618=PLANE('',#701);
#619=PLANE('',#702);
#620=PLANE('',#703);
#621=ADVANCED_FACE('',(#25),#591,.T.);
#622=ADVANCED_FACE('',(#26),#592,.T.);
#623=ADVANCED_FACE('',(#27),#593,.T.);
#624=ADVANCED_FACE('',(#28),#594,.T.);
#625=ADVANCED_FACE('',(#29),#595,.T.);
#626=ADVANCED_FACE('',(#30),#596,.T.);
#627=ADVANCED_FACE('',(#31),#597,.T.);
#628=ADVANCED_FACE('',(#32),#598,.T.);
#629=ADVANCED_FACE('',(#33),#599,.T.);
#630=ADVANCED_FACE('',(#34),#600,.T.);
#631=ADVANCED_FACE('',(#35),#19,.F.);
#632=ADVANCED_FACE('',(#36),#601,.T.);
#633=ADVANCED_FACE('',(#37),#20,.F.);
#634=ADVANCED_FACE('',(#38),#602,.T.);
#635=ADVANCED_FACE('',(#39),#603,.T.);
#636=ADVANCED_FACE('',(#40),#604,.T.);
#637=ADVANCED_FACE('',(#41),#605,.T.);
#638=ADVANCED_FACE('',(#42),#606,.T.);
#639=ADVANCED_FACE('',(#43),#607,.T.);
#640=ADVANCED_FACE('',(#44),#608,.T.);
#641=ADVANCED_FACE('',(#45),#609,.T.);
#642=ADVANCED_FACE('',(#46),#610,.T.);
#643=ADVANCED_FACE('',(#47),#611,.T.);
#644=ADVANCED_FACE('',(#48),#612,.T.);
#645=ADVANCED_FACE('',(#49),#613,.T.);
#646=ADVANCED_FACE('',(#50),#614,.T.);
#647=ADVANCED_FACE('',(#51),#615,.T.);
#648=ADVANCED_FACE('',(#52),#616,.T.);
#649=ADVANCED_FACE('',(#53),#617,.F.);
#650=ADVANCED_FACE('',(#54),#618,.T.);
#651=ADVANCED_FACE('',(#55),#619,.T.);
#652=ADVANCED_FACE('',(#56),#620,.T.);
#653=CLOSED_SHELL('',(#621,#622,#623,#624,#625,#626,#627,#628,#629,#630,
#631,#632,#633,#634,#635,#636,#637,#638,#639,#640,#641,#642,#643,#644,#645,
#646,#647,#648,#649,#650,#651,#652));
#654=DERIVED_UNIT_ELEMENT(#656,1.);
#655=DERIVED_UNIT_ELEMENT(#1061,-3.);
#656=(
MASS_UNIT()
NAMED_UNIT(*)
SI_UNIT(.KILO.,.GRAM.)
);
#657=DERIVED_UNIT((#654,#655));
#658=MEASURE_REPRESENTATION_ITEM('density measure',
POSITIVE_RATIO_MEASURE(7850.),#657);
#659=PROPERTY_DEFINITION_REPRESENTATION(#664,#661);
#660=PROPERTY_DEFINITION_REPRESENTATION(#665,#662);
#661=REPRESENTATION('material name',(#663),#1058);
#662=REPRESENTATION('density',(#658),#1058);
#663=DESCRIPTIVE_REPRESENTATION_ITEM('Steel','Steel');
#664=PROPERTY_DEFINITION('material property','material name',#1073);
#665=PROPERTY_DEFINITION('material property','density of part',#1073);
#666=AXIS2_PLACEMENT_3D('',#869,#705,#706);
#667=AXIS2_PLACEMENT_3D('',#870,#707,#708);
#668=AXIS2_PLACEMENT_3D('',#871,#709,#710);
#669=AXIS2_PLACEMENT_3D('',#884,#717,#718);
#670=AXIS2_PLACEMENT_3D('',#902,#728,#729);
#671=AXIS2_PLACEMENT_3D('',#918,#737,#738);
#672=AXIS2_PLACEMENT_3D('',#922,#740,#741);
#673=AXIS2_PLACEMENT_3D('',#936,#749,#750);
#674=AXIS2_PLACEMENT_3D('',#946,#756,#757);
#675=AXIS2_PLACEMENT_3D('',#950,#760,#761);
#676=AXIS2_PLACEMENT_3D('',#954,#764,#765);
#677=AXIS2_PLACEMENT_3D('',#963,#771,#772);
#678=AXIS2_PLACEMENT_3D('',#972,#778,#779);
#679=AXIS2_PLACEMENT_3D('',#974,#781,#782);
#680=AXIS2_PLACEMENT_3D('',#976,#784,#785);
#681=AXIS2_PLACEMENT_3D('',#979,#786,#787);
#682=AXIS2_PLACEMENT_3D('',#982,#790,#791);
#683=AXIS2_PLACEMENT_3D('',#986,#794,#795);
#684=AXIS2_PLACEMENT_3D('',#988,#796,#797);
#685=AXIS2_PLACEMENT_3D('',#990,#799,#800);
#686=AXIS2_PLACEMENT_3D('',#1002,#807,#808);
#687=AXIS2_PLACEMENT_3D('',#1004,#810,#811);
#688=AXIS2_PLACEMENT_3D('',#1006,#813,#814);
#689=AXIS2_PLACEMENT_3D('',#1007,#815,#816);
#690=AXIS2_PLACEMENT_3D('',#1009,#818,#819);
#691=AXIS2_PLACEMENT_3D('',#1011,#821,#822);
#692=AXIS2_PLACEMENT_3D('',#1012,#823,#824);
#693=AXIS2_PLACEMENT_3D('',#1015,#827,#828);
#694=AXIS2_PLACEMENT_3D('',#1025,#834,#835);
#695=AXIS2_PLACEMENT_3D('',#1029,#838,#839);
#696=AXIS2_PLACEMENT_3D('',#1033,#842,#843);
#697=AXIS2_PLACEMENT_3D('',#1038,#847,#848);
#698=AXIS2_PLACEMENT_3D('',#1039,#849,#850);
#699=AXIS2_PLACEMENT_3D('',#1041,#852,#853);
#700=AXIS2_PLACEMENT_3D('',#1042,#854,#855);
#701=AXIS2_PLACEMENT_3D('',#1048,#859,#860);
#702=AXIS2_PLACEMENT_3D('',#1050,#862,#863);
#703=AXIS2_PLACEMENT_3D('',#1052,#865,#866);
#704=AXIS2_PLACEMENT_3D('',#1053,#867,#868);
#705=DIRECTION('axis',(0.,0.,1.));
#706=DIRECTION('refdir',(1.,0.,0.));
#707=DIRECTION('axis',(0.,0.,1.));
#708=DIRECTION('refdir',(1.,0.,0.));
#709=DIRECTION('center_axis',(-1.,0.,0.));
#710=DIRECTION('ref_axis',(0.,0.,1.));
#711=DIRECTION('',(0.,-0.707106781186547,0.707106781186548));
#712=DIRECTION('',(0.,0.,1.));
#713=DIRECTION('',(0.,1.,0.));
#714=DIRECTION('',(0.,0.,1.));
#715=DIRECTION('',(0.,-0.707106781186547,-0.707106781186548));
#716=DIRECTION('',(0.,1.,0.));
#717=DIRECTION('center_axis',(0.,1.,0.));
#718=DIRECTION('ref_axis',(0.,0.,1.));
#719=DIRECTION('',(-1.,0.,0.));
#720=DIRECTION('',(0.,0.,-1.));
#721=DIRECTION('',(1.,0.,0.));
#722=DIRECTION('',(0.,0.,1.));
#723=DIRECTION('',(0.984807753012208,0.,-0.17364817766693));
#724=DIRECTION('',(-1.,0.,0.));
#725=DIRECTION('',(0.,0.,1.));
#726=DIRECTION('',(1.,0.,0.));
#727=DIRECTION('',(-0.984807753012208,0.,-0.17364817766693));
#728=DIRECTION('center_axis',(1.,0.,0.));
#729=DIRECTION('ref_axis',(0.,0.,-1.));
#730=DIRECTION('',(0.,0.707106781186547,-0.707106781186548));
#731=DIRECTION('',(0.,1.,0.));
#732=DIRECTION('',(0.,0.707106781186547,0.707106781186548));
#733=DIRECTION('',(0.,0.,1.));
#734=DIRECTION('',(0.,1.,0.));
#735=DIRECTION('',(0.,0.,1.));
#736=DIRECTION('',(0.,-1.,0.));
#737=DIRECTION('center_axis',(1.,0.,0.));
#738=DIRECTION('ref_axis',(0.,0.707106781186547,0.707106781186548));
#739=DIRECTION('',(0.,-5.62138233424468E-16,1.));
#740=DIRECTION('center_axis',(1.,0.,0.));
#741=DIRECTION('ref_axis',(0.,0.707106781186547,-0.707106781186548));
#742=DIRECTION('',(0.,-1.,0.));
#743=DIRECTION('',(0.,0.,-1.));
#744=DIRECTION('',(0.,-1.,0.));
#745=DIRECTION('',(0.,0.,-1.));
#746=DIRECTION('',(0.,-0.707106781186548,0.707106781186548));
#747=DIRECTION('',(0.,1.,0.));
#748=DIRECTION('',(0.,-0.707106781186547,-0.707106781186548));
#749=DIRECTION('center_axis',(-1.,0.,0.));
#750=DIRECTION('ref_axis',(0.,0.,1.));
#751=DIRECTION('',(0.,0.707106781186547,0.707106781186548));
#752=DIRECTION('',(0.,-1.,0.));
#753=DIRECTION('',(0.,0.707106781186548,-0.707106781186548));
#754=DIRECTION('',(0.,0.,1.));
#755=DIRECTION('',(0.,-1.,0.));
#756=DIRECTION('center_axis',(-0.17364817766693,0.,0.984807753012208));
#757=DIRECTION('ref_axis',(0.984807753012208,0.,0.17364817766693));
#758=DIRECTION('',(0.984807753012208,0.,0.17364817766693));
#759=DIRECTION('',(0.,-1.,0.));
#760=DIRECTION('center_axis',(-0.17364817766693,0.,-0.984807753012208));
#761=DIRECTION('ref_axis',(-0.984807753012208,0.,0.17364817766693));
#762=DIRECTION('',(-0.984807753012208,0.,0.17364817766693));
#763=DIRECTION('',(0.,1.,0.));
#764=DIRECTION('center_axis',(0.,0.,-1.));
#765=DIRECTION('ref_axis',(-1.,0.,0.));
#766=DIRECTION('',(-1.,0.,0.));
#767=DIRECTION('',(-0.939692620785908,-0.342020143325669,0.));
#768=DIRECTION('',(-1.,0.,0.));
#769=DIRECTION('',(-0.939692620785909,0.342020143325669,0.));
#770=DIRECTION('',(0.,1.,0.));
#771=DIRECTION('center_axis',(0.,0.,1.));
#772=DIRECTION('ref_axis',(1.,0.,0.));
#773=DIRECTION('',(0.,1.,0.));
#774=DIRECTION('',(0.939692620785909,-0.342020143325669,0.));
#775=DIRECTION('',(1.,0.,0.));
#776=DIRECTION('',(0.939692620785908,0.342020143325669,0.));
#777=DIRECTION('',(1.,0.,0.));
#778=DIRECTION('center_axis',(0.,-1.,0.));
#779=DIRECTION('ref_axis',(0.,0.,1.));
#780=DIRECTION('',(1.,0.,0.));
#781=DIRECTION('center_axis',(0.,-1.,0.));
#782=DIRECTION('ref_axis',(0.,0.,1.));
#783=DIRECTION('',(-1.,0.,0.));
#784=DIRECTION('center_axis',(-1.,0.,0.));
#785=DIRECTION('ref_axis',(0.,0.707106781186547,0.707106781186548));
#786=DIRECTION('center_axis',(-1.,0.,0.));
#787=DIRECTION('ref_axis',(0.,0.707106781186547,0.707106781186548));
#788=DIRECTION('',(1.,0.,0.));
#789=DIRECTION('',(-1.,0.,0.));
#790=DIRECTION('center_axis',(0.,-1.,-5.62138233424468E-16));
#791=DIRECTION('ref_axis',(0.,5.62138233424468E-16,-1.));
#792=DIRECTION('',(0.,0.,1.));
#793=DIRECTION('',(-1.,0.,0.));
#794=DIRECTION('center_axis',(1.,0.,0.));
#795=DIRECTION('ref_axis',(0.,0.707106781186547,-0.707106781186548));
#796=DIRECTION('center_axis',(-1.,0.,0.));
#797=DIRECTION('ref_axis',(0.,0.707106781186547,-0.707106781186548));
#798=DIRECTION('',(1.,0.,0.));
#799=DIRECTION('center_axis',(0.,0.,1.));
#800=DIRECTION('ref_axis',(0.,-1.,0.));
#801=DIRECTION('',(0.,-1.,-6.67201306108066E-18));
#802=DIRECTION('',(1.,0.,0.));
#803=DIRECTION('',(0.,-1.,0.));
#804=DIRECTION('',(-0.939692620785909,0.342020143325669,0.));
#805=DIRECTION('',(-1.,0.,0.));
#806=DIRECTION('',(-0.939692620785908,-0.342020143325669,0.));
#807=DIRECTION('center_axis',(0.,0.707106781186548,0.707106781186547));
#808=DIRECTION('ref_axis',(1.,0.,0.));
#809=DIRECTION('',(1.,0.,0.));
#810=DIRECTION('center_axis',(0.,0.,1.));
#811=DIRECTION('ref_axis',(0.,1.,0.));
#812=DIRECTION('',(-1.,0.,0.));
#813=DIRECTION('center_axis',(0.,-0.707106781186548,0.707106781186547));
#814=DIRECTION('ref_axis',(1.,0.,0.));
#815=DIRECTION('center_axis',(0.,0.707106781186548,-0.707106781186547));
#816=DIRECTION('ref_axis',(-1.,0.,0.));
#817=DIRECTION('',(-1.,0.,0.));
#818=DIRECTION('center_axis',(0.,0.,-1.));
#819=DIRECTION('ref_axis',(0.,-1.,0.));
#820=DIRECTION('',(1.,0.,0.));
#821=DIRECTION('center_axis',(0.,-0.707106781186548,-0.707106781186548));
#822=DIRECTION('ref_axis',(-1.,0.,0.));
#823=DIRECTION('center_axis',(-0.342020143325669,-0.939692620785909,0.));
#824=DIRECTION('ref_axis',(0.,0.,-1.));
#825=DIRECTION('',(0.,0.,-1.));
#826=DIRECTION('',(0.,0.,-1.));
#827=DIRECTION('center_axis',(-1.,0.,0.));
#828=DIRECTION('ref_axis',(0.,0.,1.));
#829=DIRECTION('',(0.,-0.707106781186548,-0.707106781186547));
#830=DIRECTION('',(0.,0.,1.));
#831=DIRECTION('',(0.,0.707106781186548,-0.707106781186548));
#832=DIRECTION('',(0.,-1.,0.));
#833=DIRECTION('',(0.,0.,-1.));
#834=DIRECTION('center_axis',(-0.342020143325669,-0.939692620785909,0.));
#835=DIRECTION('ref_axis',(0.,0.,-1.));
#836=DIRECTION('',(0.939692620785909,-0.342020143325669,0.));
#837=DIRECTION('',(0.,0.,1.));
#838=DIRECTION('center_axis',(0.,-1.,0.));
#839=DIRECTION('ref_axis',(0.,0.,-1.));
#840=DIRECTION('',(1.,0.,0.));
#841=DIRECTION('',(0.,0.,1.));
#842=DIRECTION('center_axis',(0.,0.,-1.));
#843=DIRECTION('ref_axis',(0.,1.,0.));
#844=DIRECTION('',(0.939692620785908,0.342020143325669,0.));
#845=DIRECTION('',(-1.,0.,0.));
#846=DIRECTION('',(0.,1.,0.));
#847=DIRECTION('center_axis',(0.342020143325669,-0.939692620785908,0.));
#848=DIRECTION('ref_axis',(0.,0.,-1.));
#849=DIRECTION('center_axis',(0.342020143325669,-0.939692620785908,0.));
#850=DIRECTION('ref_axis',(0.,0.,-1.));
#851=DIRECTION('',(0.,0.,-1.));
#852=DIRECTION('center_axis',(0.,-1.,0.));
#853=DIRECTION('ref_axis',(0.,0.,-1.));
#854=DIRECTION('center_axis',(1.,0.,0.));
#855=DIRECTION('ref_axis',(0.,1.,0.));
#856=DIRECTION('',(0.,0.707106781186548,-0.707106781186548));
#857=DIRECTION('',(0.,0.,-1.));
#858=DIRECTION('',(0.,-0.707106781186548,-0.707106781186547));
#859=DIRECTION('center_axis',(0.,-0.707106781186548,-0.707106781186548));
#860=DIRECTION('ref_axis',(-1.,0.,0.));
#861=DIRECTION('',(1.,0.,0.));
#862=DIRECTION('center_axis',(0.,-0.707106781186547,0.707106781186548));
#863=DIRECTION('ref_axis',(1.,0.,0.));
#864=DIRECTION('',(-1.,0.,0.));
#865=DIRECTION('center_axis',(0.,-1.,0.));
#866=DIRECTION('ref_axis',(0.,0.,-1.));
#867=DIRECTION('',(0.,0.,1.));
#868=DIRECTION('',(1.,0.,0.));
#869=CARTESIAN_POINT('',(0.,0.,0.));
#870=CARTESIAN_POINT('',(0.,0.,0.));
#871=CARTESIAN_POINT('Origin',(34.9,28.2500004209578,11.700000089407));
#872=CARTESIAN_POINT('',(34.9,39.7000005736947,12.200000089407));
#873=CARTESIAN_POINT('',(34.9,35.2000005736947,16.700000089407));
#874=CARTESIAN_POINT('',(34.9,35.7125005355105,16.1875001275912));
#875=CARTESIAN_POINT('',(34.9,39.7000005736947,10.200000089407));
#876=CARTESIAN_POINT('',(34.9,39.7000005736947,-3.70000000745058));
#877=CARTESIAN_POINT('',(34.9,17.3000002682209,10.200000089407));
#878=CARTESIAN_POINT('',(34.9,33.7250004973263,10.200000089407));
#879=CARTESIAN_POINT('',(34.9,17.3000002682209,12.700000089407));
#880=CARTESIAN_POINT('',(34.9,17.3000002682209,6.70000008940697));
#881=CARTESIAN_POINT('',(34.9,21.3000002682209,16.700000089407));
#882=CARTESIAN_POINT('',(34.9,20.7875003064051,16.1875001275912));
#883=CARTESIAN_POINT('',(34.9,17.3000002682209,16.700000089407));
#884=CARTESIAN_POINT('Origin',(0.,39.7000005736947,-1.20000000745058));
#885=CARTESIAN_POINT('',(35.9,39.7000005736947,12.200000089407));
#886=CARTESIAN_POINT('',(8.975,39.7000005736947,12.200000089407));
#887=CARTESIAN_POINT('',(35.9,39.7000005736947,-6.70000000745059));
#888=CARTESIAN_POINT('',(35.9,39.7000005736947,-11.2000000074506));
#889=CARTESIAN_POINT('',(34.9,39.7000005736947,-6.70000000745059));
#890=CARTESIAN_POINT('',(8.975,39.7000005736947,-6.70000000745059));
#891=CARTESIAN_POINT('',(34.9,39.7000005736947,-4.70000000745058));
#892=CARTESIAN_POINT('',(34.9,39.7000005736947,-11.2000000074506));
#893=CARTESIAN_POINT('',(17.8861545411469,39.7000005736947,-1.70000000745058));
#894=CARTESIAN_POINT('',(13.4234528935197,39.7000005736947,-0.913105300121789));
#895=CARTESIAN_POINT('',(-1.7,39.7000005736947,-1.70000000745058));
#896=CARTESIAN_POINT('',(0.,39.7000005736947,-1.70000000745058));
#897=CARTESIAN_POINT('',(-1.7,39.7000005736947,7.20000008940697));
#898=CARTESIAN_POINT('',(-1.7,39.7000005736947,6.70000008940697));
#899=CARTESIAN_POINT('',(17.8861545411469,39.7000005736947,7.20000008940697));
#900=CARTESIAN_POINT('',(0.,39.7000005736947,7.20000008940697));
#901=CARTESIAN_POINT('',(12.7479631021697,39.7000005736947,6.29399830667004));
#902=CARTESIAN_POINT('Origin',(35.9,28.2500000935048,2.75000004097819));
#903=CARTESIAN_POINT('',(35.9,35.2000005736947,16.700000089407));
#904=CARTESIAN_POINT('',(35.9,37.9500004657544,13.9500001973473));
#905=CARTESIAN_POINT('',(35.9,21.3000002682209,16.700000089407));
#906=CARTESIAN_POINT('',(35.9,17.3000002682209,16.700000089407));
#907=CARTESIAN_POINT('',(35.9,17.3000002682209,12.700000089407));
#908=CARTESIAN_POINT('',(35.9,18.5500002124347,13.9500000336207));
#909=CARTESIAN_POINT('',(35.9,17.3000002682209,7.20000008940697));
#910=CARTESIAN_POINT('',(35.9,17.3000002682209,6.70000008940697));
#911=CARTESIAN_POINT('',(35.9,7.03161331368154,7.20000008940697));
#912=CARTESIAN_POINT('',(35.9,39.2000005736947,7.20000008940697));
#913=CARTESIAN_POINT('',(35.9,7.03161331368154,6.20000008940697));
#914=CARTESIAN_POINT('',(35.9,7.03161331368154,6.70000008940697));
#915=CARTESIAN_POINT('',(35.9,15.1000002682209,6.20000008940697));
#916=CARTESIAN_POINT('',(35.9,17.3000002682209,6.20000008940697));
#917=CARTESIAN_POINT('',(35.9,17.3000002682209,4.00000008940697));
#918=CARTESIAN_POINT('Origin',(35.9,15.1000002682209,4.00000008940697));
#919=CARTESIAN_POINT('',(35.9,17.3000002682209,1.49999999254942));
#920=CARTESIAN_POINT('',(35.9,17.3000002682209,4.72500006519258));
#921=CARTESIAN_POINT('',(35.9,15.1000002682209,-0.700000007450581));
#922=CARTESIAN_POINT('Origin',(35.9,15.1000002682209,1.49999999254942));
#923=CARTESIAN_POINT('',(35.9,7.03161331368154,-0.700000007450581));
#924=CARTESIAN_POINT('',(35.9,17.3000002682209,-0.700000007450581));
#925=CARTESIAN_POINT('',(35.9,7.03161331368154,-1.70000000745058));
#926=CARTESIAN_POINT('',(35.9,7.03161331368154,-1.20000000745058));
#927=CARTESIAN_POINT('',(35.9,17.3000002682209,-1.70000000745058));
#928=CARTESIAN_POINT('',(35.9,17.3000002682209,-1.70000000745058));
#929=CARTESIAN_POINT('',(35.9,17.3000002682209,-7.20000000745058));
#930=CARTESIAN_POINT('',(35.9,17.3000002682209,-1.20000000745058));
#931=CARTESIAN_POINT('',(35.9,21.3000002682209,-11.2000000074506));
#932=CARTESIAN_POINT('',(35.9,18.5500002124347,-8.44999995166436));
#933=CARTESIAN_POINT('',(35.9,35.2000005736947,-11.2000000074506));
#934=CARTESIAN_POINT('',(35.9,17.3000002682209,-11.2000000074506));
#935=CARTESIAN_POINT('',(35.9,37.9500004657544,-8.45000011539087));
#936=CARTESIAN_POINT('Origin',(34.9,28.2500004209578,-6.20000000745058));
#937=CARTESIAN_POINT('',(34.9,35.2000005736947,-11.2000000074506));
#938=CARTESIAN_POINT('',(34.9,35.7125005355105,-10.6875000456348));
#939=CARTESIAN_POINT('',(34.9,21.3000002682209,-11.2000000074506));
#940=CARTESIAN_POINT('',(34.9,17.3000002682209,-11.2000000074506));
#941=CARTESIAN_POINT('',(34.9,17.3000002682209,-7.20000000745058));
#942=CARTESIAN_POINT('',(34.9,20.7875003064051,-10.6875000456348));
#943=CARTESIAN_POINT('',(34.9,17.3000002682209,-4.70000000745058));
#944=CARTESIAN_POINT('',(34.9,17.3000002682209,-1.20000000745058));
#945=CARTESIAN_POINT('',(34.9,22.7750003445894,-4.70000000745058));
#946=CARTESIAN_POINT('Origin',(26.3930772705734,33.7250004973263,8.70000008940697));
#947=CARTESIAN_POINT('',(17.8861545411469,17.3000002682209,7.20000008940697));
#948=CARTESIAN_POINT('',(30.8321941650732,17.3000002682209,9.48273616842606));
#949=CARTESIAN_POINT('',(17.8861545411469,33.7250004973263,7.20000008940697));
#950=CARTESIAN_POINT('Origin',(26.3930772705734,22.7750003445894,-3.20000000745058));
#951=CARTESIAN_POINT('',(17.8861545411469,17.3000002682209,-1.70000000745058));
#952=CARTESIAN_POINT('',(31.6872445233874,17.3000002682209,-4.1335045345049));
#953=CARTESIAN_POINT('',(17.8861545411469,22.7750003445894,-1.70000000745058));
#954=CARTESIAN_POINT('Origin',(0.,17.3000002682209,-1.70000000745058));
#955=CARTESIAN_POINT('',(17.95,17.3000002682209,-1.70000000745058));
#956=CARTESIAN_POINT('',(22.9,2.3000002682209,-1.70000000745058));
#957=CARTESIAN_POINT('',(18.4498490994684,0.680277802434452,-1.70000000745058));
#958=CARTESIAN_POINT('',(11.3,2.3000002682209,-1.70000000745058));
#959=CARTESIAN_POINT('',(-1.7,2.3000002682209,-1.70000000745058));
#960=CARTESIAN_POINT('',(-1.7,7.03161331368153,-1.70000000745058));
#961=CARTESIAN_POINT('',(0.650470911864366,6.17611186525436,-1.70000000745058));
#962=CARTESIAN_POINT('',(-1.7,39.2000005736947,-1.70000000745058));
#963=CARTESIAN_POINT('Origin',(0.,39.2000005736947,7.20000008940697));
#964=CARTESIAN_POINT('',(-1.7,7.03161331368153,7.20000008940697));
#965=CARTESIAN_POINT('',(-1.7,39.2000005736947,7.20000008940697));
#966=CARTESIAN_POINT('',(11.3,2.3000002682209,7.20000008940697));
#967=CARTESIAN_POINT('',(-2.86879130025813,7.45701855704478,7.20000008940697));
#968=CARTESIAN_POINT('',(22.9,2.3000002682209,7.20000008940697));
#969=CARTESIAN_POINT('',(35.9,2.3000002682209,7.20000008940697));
#970=CARTESIAN_POINT('',(21.9691113115909,1.96118449422488,7.20000008940697));
#971=CARTESIAN_POINT('',(17.95,17.3000002682209,7.20000008940697));
#972=CARTESIAN_POINT('Origin',(35.9,17.3000002682209,6.70000008940697));
#973=CARTESIAN_POINT('',(35.9,17.3000002682209,12.700000089407));
#974=CARTESIAN_POINT('Origin',(35.9,17.3000002682209,-11.2000000074506));
#975=CARTESIAN_POINT('',(35.9,17.3000002682209,-7.20000000745058));
#976=CARTESIAN_POINT('Origin',(0.,15.1000002682209,4.00000008940697));
#977=CARTESIAN_POINT('',(35.4,15.1000002682209,6.20000008940697));
#978=CARTESIAN_POINT('',(35.4,17.2999996133149,4.00000008940697));
#979=CARTESIAN_POINT('Origin',(35.4,15.1000002682209,4.00000008940697));
#980=CARTESIAN_POINT('',(0.,17.3000002682209,4.00000008940697));
#981=CARTESIAN_POINT('',(0.,15.1000002682209,6.20000008940697));
#982=CARTESIAN_POINT('Origin',(0.,17.3000002682209,6.70000008940697));
#983=CARTESIAN_POINT('',(35.4,17.2999996133149,1.49999999254942));
#984=CARTESIAN_POINT('',(35.4,17.2999996133149,-0.700000007450581));
#985=CARTESIAN_POINT('',(0.,17.3000002682209,1.49999999254942));
#986=CARTESIAN_POINT('Origin',(0.,15.1000002682209,1.49999999254942));
#987=CARTESIAN_POINT('',(35.4,15.1000002682209,-0.700000007450581));
#988=CARTESIAN_POINT('Origin',(35.4,15.1000002682209,1.49999999254942));
#989=CARTESIAN_POINT('',(0.,15.1000002682209,-0.700000007450581));
#990=CARTESIAN_POINT('Origin',(0.,38.7000005736947,-0.700000007450581));
#991=CARTESIAN_POINT('',(35.4,38.1000005736947,-0.700000007450581));
#992=CARTESIAN_POINT('',(35.4,38.1000005736947,-0.700000007450581));
#993=CARTESIAN_POINT('',(-1.7,38.1000005736947,-0.700000007450581));
#994=CARTESIAN_POINT('',(0.,38.1000005736947,-0.700000007450581));
#995=CARTESIAN_POINT('',(-1.7,7.03161331368153,-0.700000007450581));
#996=CARTESIAN_POINT('',(-1.7,17.3000002682209,-0.700000007450581));
#997=CARTESIAN_POINT('',(11.3,2.3000002682209,-0.700000007450581));
#998=CARTESIAN_POINT('',(-2.78844284904731,7.42777411243465,-0.700000007450581));
#999=CARTESIAN_POINT('',(22.9,2.3000002682209,-0.700000007450581));
#1000=CARTESIAN_POINT('',(35.4,2.3000002682209,-0.700000007450581));
#1001=CARTESIAN_POINT('',(21.8887628603801,1.93194004961474,-0.700000007450581));
#1002=CARTESIAN_POINT('Origin',(17.95,37.2000005736947,14.700000089407));
#1003=CARTESIAN_POINT('',(17.95,35.2000005736947,16.700000089407));
#1004=CARTESIAN_POINT('Origin',(35.9,17.3000002682209,16.700000089407));
#1005=CARTESIAN_POINT('',(35.9,21.3000002682209,16.700000089407));
#1006=CARTESIAN_POINT('Origin',(35.9,19.3000002682209,14.700000089407));
#1007=CARTESIAN_POINT('Origin',(17.95,37.2000005736947,-9.20000000745058));
#1008=CARTESIAN_POINT('',(17.95,35.2000005736947,-11.2000000074506));
#1009=CARTESIAN_POINT('Origin',(35.9,39.2000005736947,-11.2000000074506));
#1010=CARTESIAN_POINT('',(35.9,21.3000002682209,-11.2000000074506));
#1011=CARTESIAN_POINT('Origin',(35.9,19.3000002682209,-9.20000000745058));
#1012=CARTESIAN_POINT('Origin',(4.8,4.66580679095122,0.900000016763806));
#1013=CARTESIAN_POINT('',(11.3,2.3000002682209,-1.20000000745058));
#1014=CARTESIAN_POINT('',(-1.7,7.03161331368153,0.900000016763806));
#1015=CARTESIAN_POINT('Origin',(-1.7,28.2500000935048,2.75000004097819));
#1016=CARTESIAN_POINT('',(-1.7,38.7000005736947,-0.10000000745058));
#1017=CARTESIAN_POINT('',(-1.7,36.6500004657544,-2.15000011539087));
#1018=CARTESIAN_POINT('',(-1.7,38.7000005736947,5.60000008940697));
#1019=CARTESIAN_POINT('',(-1.7,38.7000005736947,6.20000008940697));
#1020=CARTESIAN_POINT('',(-1.7,38.1000005736947,6.20000008940697));
#1021=CARTESIAN_POINT('',(-1.7,36.6500004657544,7.65000019734725));
#1022=CARTESIAN_POINT('',(-1.7,7.03161331368153,6.20000008940697));
#1023=CARTESIAN_POINT('',(-1.7,17.8000002682209,6.20000008940697));
#1024=CARTESIAN_POINT('',(-1.7,7.03161331368153,4.60000006519258));
#1025=CARTESIAN_POINT('Origin',(4.8,4.66580679095122,4.60000006519258));
#1026=CARTESIAN_POINT('',(11.3,2.3000002682209,6.20000008940697));
#1027=CARTESIAN_POINT('',(0.650471017105737,6.17611182694964,6.20000008940697));
#1028=CARTESIAN_POINT('',(11.3,2.3000002682209,4.60000006519258));
#1029=CARTESIAN_POINT('Origin',(17.1,2.3000002682209,6.45000008940697));
#1030=CARTESIAN_POINT('',(22.9,2.3000002682209,6.20000008940697));
#1031=CARTESIAN_POINT('',(35.4,2.3000002682209,6.20000008940697));
#1032=CARTESIAN_POINT('',(22.9,2.3000002682209,6.70000008940697));
#1033=CARTESIAN_POINT('Origin',(0.,17.2999996133149,6.20000008940697));
#1034=CARTESIAN_POINT('',(18.449848994227,0.680277764129729,6.20000008940697));
#1035=CARTESIAN_POINT('',(35.4,38.1000005736947,6.20000008940697));
#1036=CARTESIAN_POINT('',(0.,38.1000005736947,6.20000008940697));
#1037=CARTESIAN_POINT('',(35.4,17.2999996133149,6.20000008940697));
#1038=CARTESIAN_POINT('Origin',(29.4,4.66580679095122,4.60000006519258));
#1039=CARTESIAN_POINT('Origin',(29.4,4.66580679095122,0.900000016763806));
#1040=CARTESIAN_POINT('',(22.9,2.3000002682209,-1.20000000745058));
#1041=CARTESIAN_POINT('Origin',(17.1,2.3000002682209,-0.950000007450581));
#1042=CARTESIAN_POINT('Origin',(35.4,28.2500000935048,2.75000004097819));
#1043=CARTESIAN_POINT('',(35.4,38.7000005736947,5.60000008940697));
#1044=CARTESIAN_POINT('',(35.4,38.1000005736947,6.20000008940697));
#1045=CARTESIAN_POINT('',(35.4,38.7000005736947,-0.10000000745058));
#1046=CARTESIAN_POINT('',(35.4,38.7000005736947,5.60000008940697));
#1047=CARTESIAN_POINT('',(35.4,38.7000005736947,-0.10000000745058));
#1048=CARTESIAN_POINT('Origin',(0.,38.4000005736947,5.90000008940697));
#1049=CARTESIAN_POINT('',(0.,38.7000005736947,5.60000008940697));
#1050=CARTESIAN_POINT('Origin',(0.,38.4000005736947,-0.400000007450581));
#1051=CARTESIAN_POINT('',(0.,38.7000005736947,-0.100000007450581));
#1052=CARTESIAN_POINT('Origin',(0.,38.7000005736947,6.20000008940697));
#1053=CARTESIAN_POINT('',(0.,0.,0.));
#1054=UNCERTAINTY_MEASURE_WITH_UNIT(LENGTH_MEASURE(0.01),#1060,
'DISTANCE_ACCURACY_VALUE',
'Maximum model space distance between geometric entities at asserted c
onnectivities');
#1055=UNCERTAINTY_MEASURE_WITH_UNIT(LENGTH_MEASURE(0.01),#1060,
'DISTANCE_ACCURACY_VALUE',
'Maximum model space distance between geometric entities at asserted c
onnectivities');
#1056=UNCERTAINTY_MEASURE_WITH_UNIT(LENGTH_MEASURE(0.01),#1060,
'DISTANCE_ACCURACY_VALUE',
'Maximum model space distance between geometric entities at asserted c
onnectivities');
#1057=(
GEOMETRIC_REPRESENTATION_CONTEXT(3)
GLOBAL_UNCERTAINTY_ASSIGNED_CONTEXT((#1054))
GLOBAL_UNIT_ASSIGNED_CONTEXT((#1060,#1062,#1063))
REPRESENTATION_CONTEXT('','3D')
);
#1058=(
GEOMETRIC_REPRESENTATION_CONTEXT(3)
GLOBAL_UNCERTAINTY_ASSIGNED_CONTEXT((#1055))
GLOBAL_UNIT_ASSIGNED_CONTEXT((#1060,#1062,#1063))
REPRESENTATION_CONTEXT('','3D')
);
#1059=(
GEOMETRIC_REPRESENTATION_CONTEXT(3)
GLOBAL_UNCERTAINTY_ASSIGNED_CONTEXT((#1056))
GLOBAL_UNIT_ASSIGNED_CONTEXT((#1060,#1062,#1063))
REPRESENTATION_CONTEXT('','3D')
);
#1060=(
LENGTH_UNIT()
NAMED_UNIT(*)
SI_UNIT(.MILLI.,.METRE.)
);
#1061=(
LENGTH_UNIT()
NAMED_UNIT(*)
SI_UNIT($,.METRE.)
);
#1062=(
NAMED_UNIT(*)
PLANE_ANGLE_UNIT()
SI_UNIT($,.RADIAN.)
);
#1063=(
NAMED_UNIT(*)
SI_UNIT($,.STERADIAN.)
SOLID_ANGLE_UNIT()
);
#1064=SHAPE_DEFINITION_REPRESENTATION(#1066,#1069);
#1065=SHAPE_DEFINITION_REPRESENTATION(#1067,#1070);
#1066=PRODUCT_DEFINITION_SHAPE('',$,#1072);
#1067=PRODUCT_DEFINITION_SHAPE('',$,#1073);
#1068=PRODUCT_DEFINITION_SHAPE($,$,#14);
#1069=SHAPE_REPRESENTATION('',(#666,#704),#1057);
#1070=SHAPE_REPRESENTATION('',(#667),#1058);
#1071=PRODUCT_DEFINITION_CONTEXT('part definition',#1079,'design');
#1072=PRODUCT_DEFINITION('track','track v11',#1074,#1071);
#1073=PRODUCT_DEFINITION('CAL','CAL',#1075,#1071);
#1074=PRODUCT_DEFINITION_FORMATION('',$,#1081);
#1075=PRODUCT_DEFINITION_FORMATION('',$,#1082);
#1076=PRODUCT_RELATED_PRODUCT_CATEGORY('track v11','track v11',(#1081));
#1077=PRODUCT_RELATED_PRODUCT_CATEGORY('CAL','CAL',(#1082));
#1078=APPLICATION_PROTOCOL_DEFINITION('international standard',
'automotive_design',2009,#1079);
#1079=APPLICATION_CONTEXT(
'Core Data for Automotive Mechanical Design Process');
#1080=PRODUCT_CONTEXT('part definition',#1079,'mechanical');
#1081=PRODUCT('track','track v11',$,(#1080));
#1082=PRODUCT('CAL','CAL',$,(#1080));
#1083=PRESENTATION_STYLE_ASSIGNMENT((#1085));
#1084=PRESENTATION_STYLE_ASSIGNMENT((#1086));
#1085=SURFACE_STYLE_USAGE(.BOTH.,#1087);
#1086=SURFACE_STYLE_USAGE(.BOTH.,#1088);
#1087=SURFACE_SIDE_STYLE('',(#1089));
#1088=SURFACE_SIDE_STYLE('',(#1090));
#1089=SURFACE_STYLE_FILL_AREA(#1091);
#1090=SURFACE_STYLE_FILL_AREA(#1092);
#1091=FILL_AREA_STYLE('Steel - Satin',(#1093));
#1092=FILL_AREA_STYLE('ABS (White)',(#1094));
#1093=FILL_AREA_STYLE_COLOUR('Steel - Satin',#1095);
#1094=FILL_AREA_STYLE_COLOUR('ABS (White)',#1096);
#1095=COLOUR_RGB('Steel - Satin',0.627450980392157,0.627450980392157,0.627450980392157);
#1096=COLOUR_RGB('ABS (White)',0.329411764705882,0.329411764705882,0.329411764705882);
ENDSEC;
END-ISO-10303-21;
